<svg width="32" height="32" viewBox="0 0 32 32" fill="none" xmlns="http://www.w3.org/2000/svg">
  <!-- 背景圆形 -->
  <circle cx="16" cy="16" r="15" fill="url(#gradient)" stroke="#8B5CF6" stroke-width="2"/>
  
  <!-- 火箭主体 -->
  <path d="M16 6L18 10L20 12L18 14L16 18L14 14L12 12L14 10L16 6Z" fill="white"/>
  
  <!-- 火箭尾焰 -->
  <path d="M16 18L15 20L17 20L16 18Z" fill="#F59E0B"/>
  <path d="M16 18L14 19L18 19L16 18Z" fill="#F59E0B"/>
  <path d="M16 18L13 20L19 20L16 18Z" fill="#F59E0B"/>
  
  <!-- 星星装饰 -->
  <circle cx="8" cy="8" r="1" fill="#F59E0B"/>
  <circle cx="24" cy="8" r="1" fill="#F59E0B"/>
  <circle cx="8" cy="24" r="1" fill="#F59E0B"/>
  <circle cx="24" cy="24" r="1" fill="#F59E0B"/>
  
  <!-- 中心装饰 -->
  <circle cx="16" cy="16" r="1.5" fill="#F59E0B" opacity="0.6"/>
  
  <!-- 外圈装饰 -->
  <circle cx="16" cy="16" r="13" fill="none" stroke="#F59E0B" stroke-width="0.5" opacity="0.3"/>
  
  <!-- 渐变定义 -->
  <defs>
    <linearGradient id="gradient" x1="0%" y1="0%" x2="100%" y2="100%">
      <stop offset="0%" style="stop-color:#1E1B4B;stop-opacity:1" />
      <stop offset="50%" style="stop-color:#7C3AED;stop-opacity:1" />
      <stop offset="100%" style="stop-color:#EC4899;stop-opacity:1" />
    </linearGradient>
  </defs>
</svg>
